<?xml version="1.0" encoding="UTF-8" standalone="no"?>
<!-- Generator: Adobe Illustrator 18.1.1, SVG Export Plug-In . SVG Version: 6.00 Build 0)  -->

<svg
   version="1.1"
   id="Capa_1"
   x="0px"
   y="0px"
   viewBox="0 0 55.264 55.264"
   style="enable-background:new 0 0 55.264 55.264;"
   xml:space="preserve"
   sodipodi:docname="arrow_red.svg"
   inkscape:version="1.3 (0e150ed6c4, 2023-07-21)"
   xmlns:inkscape="http://www.inkscape.org/namespaces/inkscape"
   xmlns:sodipodi="http://sodipodi.sourceforge.net/DTD/sodipodi-0.dtd"
   xmlns="http://www.w3.org/2000/svg"
   xmlns:svg="http://www.w3.org/2000/svg"><defs
   id="defs16" /><sodipodi:namedview
   id="namedview16"
   pagecolor="#ffffff"
   bordercolor="#000000"
   borderopacity="0.25"
   inkscape:showpageshadow="2"
   inkscape:pageopacity="0.0"
   inkscape:pagecheckerboard="0"
   inkscape:deskcolor="#d1d1d1"
   inkscape:zoom="14.765489"
   inkscape:cx="27.598138"
   inkscape:cy="28.309255"
   inkscape:window-width="1920"
   inkscape:window-height="1029"
   inkscape:window-x="0"
   inkscape:window-y="0"
   inkscape:window-maximized="1"
   inkscape:current-layer="Capa_1" />&#10;<g
   id="g1"
   style="fill:#390000;fill-opacity:1">&#10;	<path
   style="fill:#390000;fill-opacity:1"
   d="M30.264,2.632c-1.657,0-3,1.343-3,3s1.343,3,3,3c10.477,0,19,8.523,19,19s-8.523,19-19,19   c-8.317,0-15.469-5.463-18.009-12.985c0.035,0.038,0.079,0.071,0.113,0.109c2.047,2.349,3.934,1.574,4.087-1.735   c0.031-0.672,0.06-1.37,0.083-2.078c0.107-3.312-0.145-8.659-0.723-11.888c-0.579-3.228-3.373-4.094-5.802-1.841   c-1.624,1.506-3.387,3.246-4.745,4.855c-1.401,1.66-2.959,3.778-4.303,5.688c-1.907,2.71-0.887,4.472,2.167,3.857   c0.72-0.144,1.502-0.169,2.3-0.103c1.444,12.403,12.107,22.121,24.832,22.121c13.785,0,25-11.215,25-25S44.05,2.632,30.264,2.632z"
   id="path1" />&#10;</g>&#10;<g
   id="g2">&#10;</g>&#10;<g
   id="g3">&#10;</g>&#10;<g
   id="g4">&#10;</g>&#10;<g
   id="g5">&#10;</g>&#10;<g
   id="g6">&#10;</g>&#10;<g
   id="g7">&#10;</g>&#10;<g
   id="g8">&#10;</g>&#10;<g
   id="g9">&#10;</g>&#10;<g
   id="g10">&#10;</g>&#10;<g
   id="g11">&#10;</g>&#10;<g
   id="g12">&#10;</g>&#10;<g
   id="g13">&#10;</g>&#10;<g
   id="g14">&#10;</g>&#10;<g
   id="g15">&#10;</g>&#10;<g
   id="g16">&#10;</g>&#10;</svg>
